<svg width="149" height="43" viewBox="0 0 149 43" fill="none" xmlns="http://www.w3.org/2000/svg">
<path d="M37.176 29.416L37.944 22.28C37.944 21.704 37.7947 21.224 37.496 20.84C37.1973 20.456 36.696 20.264 35.992 20.264C35.3093 20.264 34.7227 20.5733 34.232 21.192C33.7627 21.7893 33.464 22.5467 33.336 23.464C32.568 29.3093 32.1627 32.488 32.12 33H27.8L29.56 17.928C30.456 17.6933 31.1387 17.576 31.608 17.576C33.0373 17.576 33.784 18.0987 33.848 19.144C34.8933 18.12 36.1413 17.608 37.592 17.608C39.064 17.608 40.216 17.9707 41.048 18.696C41.88 19.4213 42.296 20.3387 42.296 21.448C42.296 21.7467 42.232 22.312 42.104 23.144C41.6133 26.3867 41.368 28.2747 41.368 28.808C41.368 29.7893 41.6987 30.28 42.36 30.28C43.8107 30.28 44.9093 28.7653 45.656 25.736C46.3813 26.504 46.8187 27.112 46.968 27.56C45.8373 31.3147 43.8747 33.192 41.08 33.192C39.7573 33.192 38.776 32.7867 38.136 31.976C37.496 31.1653 37.176 30.312 37.176 29.416ZM56.6818 27.272C56.0204 29 55.0604 30.4187 53.8018 31.528C52.5644 32.616 51.1458 33.16 49.5458 33.16C47.9458 33.16 46.7404 32.6373 45.9298 31.592C45.1404 30.5253 44.7458 29.3093 44.7458 27.944C44.7458 27.6667 44.7564 27.3893 44.7778 27.112L45.8658 17.992C46.5484 17.736 47.2738 17.608 48.0418 17.608C49.4498 17.608 50.1538 18.1307 50.1538 19.176C50.1538 19.2187 49.9724 20.648 49.6098 23.464C49.2684 26.2587 49.0978 27.88 49.0978 28.328C49.0978 29.544 49.6844 30.152 50.8578 30.152C51.8604 30.152 52.7031 29.5867 53.3858 28.456C54.5804 26.408 55.2098 24.0933 55.2738 21.512H54.9858C54.0898 21.512 53.4071 21.3093 52.9378 20.904C52.4044 20.4347 52.1378 19.8693 52.1378 19.208C52.1378 18.5467 52.3404 18.0133 52.7458 17.608C53.2364 17.1813 53.8231 16.968 54.5058 16.968C56.1271 16.968 57.1404 17.8107 57.5458 19.496C58.1858 19.4107 58.6444 19.3253 58.9218 19.24V21.064L57.7378 21.256V21.8C57.7164 23.72 57.3644 25.544 56.6818 27.272ZM53.9618 19.208C53.9618 19.5707 54.2711 19.752 54.8898 19.752C54.9538 19.752 55.0178 19.752 55.0818 19.752C54.9324 19.176 54.7084 18.888 54.4098 18.888C54.1111 18.888 53.9618 18.9947 53.9618 19.208ZM65.133 25.832C66.4557 25.5547 67.437 25.0213 68.077 24.232C68.7383 23.4427 69.069 22.6853 69.069 21.96C69.069 21.2133 68.8663 20.712 68.461 20.456C68.077 20.1787 67.6503 20.04 67.181 20.04C66.1783 20.04 65.293 20.6053 64.525 21.736C63.7783 22.8453 63.405 24.1787 63.405 25.736C63.405 27.272 63.7677 28.424 64.493 29.192C65.2397 29.9387 66.157 30.312 67.245 30.312C68.845 30.312 70.381 29.7573 71.853 28.648C73.325 27.5387 74.5197 26.088 75.437 24.296C75.9063 24.744 76.333 25.2987 76.717 25.96C76.013 27.56 74.765 29.128 72.973 30.664C72.077 31.4107 71.0103 32.0187 69.773 32.488C68.557 32.9573 67.2983 33.192 65.997 33.192C63.8637 33.192 62.1783 32.5413 60.941 31.24C59.6183 29.832 58.957 28.0293 58.957 25.832C58.957 23.6347 59.7783 21.7147 61.421 20.072C63.085 18.4293 65.069 17.608 67.373 17.608C69.0157 17.608 70.349 17.9707 71.373 18.696C72.397 19.4 72.9197 20.36 72.941 21.576C72.941 23.2187 72.2797 24.552 70.957 25.576C69.6557 26.6 67.8637 27.3147 65.581 27.72L65.133 25.832ZM83.2073 29.416L83.9753 22.28C83.9753 21.704 83.8259 21.224 83.5273 20.84C83.2286 20.456 82.7273 20.264 82.0233 20.264C81.3406 20.264 80.7539 20.5733 80.2633 21.192C79.7939 21.7893 79.4953 22.5467 79.3673 23.464C78.5993 29.3093 78.1939 32.488 78.1513 33H73.8313L75.5913 17.928C76.4873 17.6933 77.1699 17.576 77.6393 17.576C79.0686 17.576 79.8153 18.0987 79.8793 19.144C80.9246 18.12 82.1726 17.608 83.6233 17.608C85.0953 17.608 86.2473 17.9707 87.0793 18.696C87.9113 19.4213 88.3273 20.3387 88.3273 21.448C88.3273 21.7467 88.2633 22.312 88.1353 23.144C87.6446 26.3867 87.3993 28.2747 87.3993 28.808C87.3993 29.7893 87.7299 30.28 88.3913 30.28C89.8419 30.28 90.9406 28.7653 91.6873 25.736C92.4126 26.504 92.8499 27.112 92.9993 27.56C91.8686 31.3147 89.9059 33.192 87.1113 33.192C85.7886 33.192 84.8073 32.7867 84.1673 31.976C83.5273 31.1653 83.2073 30.312 83.2073 29.416ZM97.913 10.728C97.913 10.856 97.625 13.1493 97.049 17.608H101.753V20.072H96.729L96.633 20.872C99.129 22.9627 100.377 25.2453 100.377 27.72C100.377 29.6613 99.8757 31.0587 98.873 31.912C97.8917 32.7653 96.7077 33.192 95.321 33.192C93.9343 33.192 92.921 32.8293 92.281 32.104C91.641 31.3573 91.321 30.4613 91.321 29.416C91.321 29.1813 91.3423 28.9253 91.385 28.648L92.377 20.136L92.249 20.072H89.657C89.6357 19.8587 89.625 19.5173 89.625 19.048C89.625 18.5573 89.721 18.0773 89.913 17.608H92.665L93.689 8.904C94.137 8.73333 94.7343 8.648 95.481 8.648C97.1023 8.648 97.913 9.34133 97.913 10.728ZM98.233 27.688C98.233 26.216 97.593 24.7653 96.313 23.336C95.929 26.5147 95.737 28.3493 95.737 28.84C95.737 29.8 96.0463 30.28 96.665 30.28C97.113 30.28 97.4863 30.0773 97.785 29.672C98.0837 29.2453 98.233 28.584 98.233 27.688ZM110.065 17.608C112.028 17.608 113.66 18.2373 114.961 19.496C116.284 20.7547 116.945 22.2907 116.945 24.104C116.945 26.856 116.134 29.064 114.513 30.728C112.913 32.3707 110.972 33.192 108.689 33.192C106.406 33.192 104.593 32.5413 103.249 31.24C101.926 29.9387 101.265 28.328 101.265 26.408C101.265 23.72 102.086 21.5867 103.729 20.008C105.393 18.408 107.505 17.608 110.065 17.608ZM109.425 20.2C108.422 20.2 107.58 20.776 106.897 21.928C106.214 23.08 105.841 24.5307 105.777 26.28C105.777 27.5173 106.022 28.5413 106.513 29.352C107.025 30.1627 107.793 30.568 108.817 30.568C109.841 30.568 110.694 30.0027 111.377 28.872C112.081 27.7413 112.433 26.4507 112.433 25C112.433 23.5493 112.188 22.3973 111.697 21.544C111.206 20.648 110.449 20.2 109.425 20.2ZM127.746 21.8C127.746 20.8613 127.309 20.392 126.434 20.392C125.581 20.392 124.898 20.9467 124.386 22.056C126.69 23.8693 127.842 25.9067 127.842 28.168C127.842 29.8107 127.383 31.0587 126.466 31.912C125.549 32.7653 124.397 33.192 123.01 33.192C121.623 33.192 120.61 32.7653 119.97 31.912C119.33 31.0373 119.01 29.9387 119.01 28.616C119.01 28.2107 119.021 27.912 119.042 27.72L120.162 17.96C120.93 17.7253 121.709 17.608 122.498 17.608C123.799 17.608 124.45 18.088 124.45 19.048V19.112C125.303 18.1093 126.391 17.608 127.714 17.608C128.674 17.608 129.421 17.832 129.954 18.28C130.487 18.7067 130.754 19.2827 130.754 20.008C130.754 20.7333 130.477 21.3307 129.922 21.8C129.389 22.248 128.685 22.472 127.81 22.472C127.767 22.472 127.725 22.472 127.682 22.472C127.725 22.2373 127.746 22.0133 127.746 21.8ZM125.762 28.008C125.762 26.7707 125.122 25.5333 123.842 24.296C123.458 27.368 123.266 28.9147 123.266 28.936C123.266 29.832 123.629 30.28 124.354 30.28C125.293 30.28 125.762 29.5227 125.762 28.008ZM136.998 42.504C135.782 42.504 134.736 42.1307 133.862 41.384C132.987 40.6587 132.549 39.592 132.549 38.184C132.549 36.456 133.424 34.7707 135.174 33.128C133.936 33.0213 132.944 32.616 132.198 31.912C131.451 31.208 131.078 30.216 131.078 28.936C131.078 28.3387 131.152 27.4427 131.302 26.248C131.451 25.0533 131.611 23.7627 131.782 22.376C131.952 20.9893 132.134 19.5173 132.326 17.96C132.987 17.7253 133.595 17.608 134.15 17.608C134.704 17.608 135.12 17.6293 135.398 17.672C135.675 17.7147 135.942 17.8747 136.198 18.152C136.454 18.4293 136.582 18.824 136.582 19.336L135.526 27.496C135.483 27.8373 135.462 28.072 135.462 28.2C135.462 29.4587 136.038 30.088 137.19 30.088C138.235 30.088 139.088 29.5973 139.75 28.616C139.814 28.1253 139.974 26.7173 140.23 24.392C140.486 22.0453 140.699 20.2213 140.87 18.92C141.062 18.5147 141.456 18.1947 142.054 17.96C142.672 17.7253 143.174 17.608 143.558 17.608C144.24 17.608 144.859 17.6933 145.414 17.864L143.91 29.672C146.406 30.12 147.899 31.8373 148.39 34.824C148.304 35.2293 147.899 35.8693 147.174 36.744C146.747 34.0773 145.574 32.456 143.654 31.88L143.142 35.88C142.907 37.8 142.299 39.3787 141.318 40.616C140.336 41.8747 138.896 42.504 136.998 42.504ZM135.046 37.576C135.046 38.28 135.216 38.8027 135.558 39.144C135.899 39.4853 136.347 39.656 136.902 39.656C137.478 39.656 137.915 39.4213 138.214 38.952C138.512 38.4827 138.747 37.544 138.918 36.136L139.334 32.616C136.539 34.0667 135.11 35.72 135.046 37.576Z" fill="#641713"/>
<path d="M25 23.4C25 25.9461 23.9939 28.3879 22.203 30.1882C20.4121 31.9886 17.9831 33 15.4504 33" fill="#641713"/>
<path d="M20.2252 19.8V18.6C20.2252 17.9635 19.9737 17.353 19.526 16.9029C19.0782 16.4529 18.471 16.2 17.8378 16.2C17.2046 16.2 16.5974 16.4529 16.1497 16.9029C15.7019 17.353 15.4504 17.9635 15.4504 18.6" fill="#641713"/>
<path d="M15.4504 18.6V17.4C15.4504 16.7635 15.1989 16.153 14.7512 15.7029C14.3034 15.2529 13.6962 15 13.063 15C12.4298 15 11.8226 15.2529 11.3749 15.7029C10.9271 16.153 10.6756 16.7635 10.6756 17.4V18.6" fill="#641713"/>
<path d="M10.6756 18V11.4C10.6756 10.7635 10.4241 10.153 9.97636 9.70294C9.52864 9.25286 8.92139 9 8.28821 9C7.65504 9 7.04779 9.25286 6.60007 9.70294C6.15235 10.153 5.90082 10.7635 5.90082 11.4V23.4" fill="#641713"/>
<path d="M20.2252 19.8C20.2252 19.1635 20.4767 18.553 20.9245 18.1029C21.3722 17.6529 21.9794 17.4 22.6126 17.4C23.2458 17.4 23.853 17.6529 24.3007 18.1029C24.7485 18.553 25 19.1635 25 19.8V23.4C25 25.9461 23.9939 28.3879 22.203 30.1882C20.4121 31.9886 17.9831 33 15.4504 33H13.063C9.72065 33 7.69137 31.968 5.91275 30.192L1.61544 25.872C1.20473 25.4147 0.984672 24.8162 1.00083 24.2003C1.01699 23.5845 1.26813 22.9984 1.70224 22.5636C2.13636 22.1287 2.72021 21.8783 3.3329 21.8642C3.94559 21.8502 4.5402 22.0735 4.99361 22.488L7.09452 24.6" fill="#641713"/>
<path d="M10.6756 18.6V17.4C10.6756 16.7635 10.9271 16.153 11.3749 15.7029C11.8226 15.2529 12.4298 15 13.063 15C13.6962 15 14.3034 15.2529 14.7512 15.7029C15.1989 16.153 15.4504 16.7635 15.4504 17.4V18.6C15.4504 17.9635 15.7019 17.353 16.1497 16.9029C16.5974 16.4529 17.2046 16.2 17.8378 16.2C18.471 16.2 19.0782 16.4529 19.526 16.9029C19.9737 17.353 20.2252 17.9635 20.2252 18.6V19.8C20.2252 19.1635 20.4767 18.553 20.9245 18.1029C21.3722 17.6529 21.9794 17.4 22.6126 17.4C23.2458 17.4 23.853 17.6529 24.3007 18.1029C24.7485 18.553 25 19.1635 25 19.8V23.4C25 25.9461 23.9939 28.3879 22.203 30.1882C20.4121 31.9886 17.9831 33 15.4504 33H13.063C9.72065 33 7.69137 31.968 5.91275 30.192L1.61544 25.872C1.20473 25.4147 0.984672 24.8162 1.00083 24.2003C1.01699 23.5845 1.26813 22.9984 1.70224 22.5636C2.13636 22.1287 2.72021 21.8783 3.3329 21.8642C3.94559 21.8502 4.5402 22.0735 4.99361 22.488L7.09452 24.6M10.6756 18V11.4C10.6756 10.7635 10.4241 10.153 9.97636 9.70294C9.52864 9.25286 8.92139 9 8.28821 9C7.65504 9 7.04779 9.25286 6.60007 9.70294C6.15235 10.153 5.90082 10.7635 5.90082 11.4V23.4" stroke="#641713" stroke-width="2" stroke-linecap="round" stroke-linejoin="round"/>
</svg>
